<svg height="511pt" viewBox="1 -44 511.99998 511" width="511pt" xmlns="http://www.w3.org/2000/svg"><path d="m156.765625.5c-40.390625 0-73.136719 48.5625-73.136719 108.464844s32.746094 108.460937 73.136719 108.460937h185.9375v-216.925781zm0 0" fill="#b2785b"/><path d="m231.277344 124.457031c-74.011719.460938-122.632813-19.488281-146.726563-32.757812-.605469 5.621093-.921875 11.390625-.921875 17.265625 0 59.902344 32.746094 108.460937 73.136719 108.460937h185.9375v-76.964843c-34.046875-9.230469-72.773437-16.246094-111.425781-16.003907zm0 0" fill="#935b45"/><path d="m221.683594 80.738281h97.496094v-45.433593h-97.496094c-12.546875 0-22.714844 10.171874-22.714844 22.71875-.003906 12.546874 10.167969 22.714843 22.714844 22.714843zm0 0" fill="#935b45"/><path d="m415.835938 108.964844c0-59.902344-32.742188-108.464844-73.132813-108.464844-40.394531 0-73.136719 48.5625-73.136719 108.464844s32.742188 108.460937 73.136719 108.460937c40.390625 0 73.132813-48.558593 73.132813-108.460937zm0 0" fill="#c68d6d"/><path d="m406.613281 161.742188c-34.234375-13.496094-83.714843-29.578126-136.09375-35.214844 5.664063 51.546875 35.824219 90.902344 72.183594 90.902344 27.472656-.003907 51.40625-22.46875 63.910156-55.6875zm0 0" fill="#b2785b"/><path d="m370.496094 108.964844c0-28.65625-12.441406-51.886719-27.792969-51.886719s-27.796875 23.230469-27.796875 51.886719c0 28.652344 12.445312 51.882812 27.796875 51.882812s27.792969-23.230468 27.792969-51.882812zm0 0" fill="#b2785b"/><path d="m342.703125 160.851562c7.550781 0 14.40625-5.632812 19.414063-14.757812-13.636719-4.21875-28.3125-8.214844-43.617188-11.59375 4.773438 15.722656 13.828125 26.351562 24.203125 26.351562zm0 0" fill="#935b45"/><path d="m147.910156 74.34375h-60.476562c-2.46875 10.875-3.804688 22.515625-3.804688 34.621094 0 3.648437.121094 7.257812.359375 10.816406h64.464844c12.820313 0 23.164063-10.621094 22.703125-23.546875-.4375-12.308594-10.929688-21.890625-23.246094-21.890625zm0 0" fill="#935b45"/><path d="m175.777344 182.625h32.78125c12.546875 0 22.71875-10.171875 22.71875-22.71875s-10.171875-22.71875-22.71875-22.71875h-32.78125c-12.546875 0-22.71875 10.171875-22.71875 22.71875s10.171875 22.71875 22.71875 22.71875zm0 0" fill="#7c4737"/><path d="m252.925781 206.980469c-40.390625 0-73.132812 48.5625-73.132812 108.464843 0 59.902344 32.742187 108.464844 73.132812 108.464844h185.9375v-216.929687zm0 0" fill="#c68d6d"/><path d="m438.863281 390.230469c-35.824219-19.183594-79.109375-39.175781-120.28125-49.964844-59.847656-15.6875-104.152343-53.757813-128.726562-79.761719-6.398438 16.113282-10.0625 34.890625-10.0625 54.941406 0 59.902344 32.742187 108.464844 73.132812 108.464844h185.9375zm0 0" fill="#b2785b"/><path d="m512 315.445312c0-59.902343-32.742188-108.464843-73.136719-108.464843-40.390625 0-73.132812 48.5625-73.132812 108.464843 0 59.902344 32.742187 108.464844 73.132812 108.464844 40.394531 0 73.136719-48.5625 73.136719-108.464844zm0 0" fill="#dd9f80"/><path d="m466.660156 315.445312c0-28.65625-12.445312-51.886718-27.796875-51.886718-15.351562 0-27.792969 23.230468-27.792969 51.886718s12.441407 51.882813 27.792969 51.882813c15.351563 0 27.796875-23.226563 27.796875-51.882813zm0 0" fill="#c68d6d"/><path d="m73.136719 206.980469c-40.390625 0-73.136719 48.5625-73.136719 108.464843 0 59.902344 32.746094 108.464844 73.136719 108.464844h185.9375v-216.929687zm0 0" fill="#dd9f80"/><path d="m74.570312 353.148438c-38.761718-32.089844-50.390624-85.351563-53.871093-113.3125-12.808594 19.535156-20.699219 46.207031-20.699219 75.609374 0 59.902344 32.746094 108.464844 73.136719 108.464844h67.445312c-15.570312-20.867187-38.261719-47.789062-66.011719-70.761718zm0 0" fill="#c68d6d"/><path d="m133.78125 375.863281h97.496094v-45.433593h-97.496094c-12.546875 0-22.71875 10.171874-22.71875 22.71875 0 12.546874 10.171875 22.714843 22.71875 22.714843zm0 0" fill="#c68d6d"/><path d="m332.207031 315.445312c0-59.902343-32.742187-108.464843-73.132812-108.464843-40.394531 0-73.136719 48.5625-73.136719 108.464843 0 59.902344 32.742188 108.464844 73.136719 108.464844 40.390625 0 73.132812-48.5625 73.132812-108.464844zm0 0" fill="#eab9a4"/><path d="m286.867188 315.445312c0-28.65625-12.441407-51.886718-27.792969-51.886718-15.351563 0-27.796875 23.230468-27.796875 51.886718s12.445312 51.882813 27.796875 51.882813c15.351562 0 27.792969-23.226563 27.792969-51.882813zm0 0" fill="#dd9f80"/><path d="m70.121094 276.339844h-65.222656c-3.164063 12.136718-4.898438 25.3125-4.898438 39.105468 0 2.125.0429688 4.234376.121094 6.332032h70c12.546875 0 22.71875-10.167969 22.71875-22.71875 0-12.546875-10.167969-22.71875-22.71875-22.71875zm0 0" fill="#c68d6d"/><path d="m148.453125 119.78125c3.425781 0 6.675781-.757812 9.589844-2.117188-34.089844-6.90625-58.527344-17.726562-73.492188-25.964843-.609375 5.621093-.921875 11.386719-.921875 17.261719 0 3.652343.121094 7.261718.359375 10.820312zm0 0" fill="#7c4737"/><path d="m47.695312 321.777344c-9.152343-14.835938-15.363281-30.75-19.578124-45.433594h-23.21875c-3.164063 12.132812-4.898438 25.308594-4.898438 39.101562 0 2.125.0429688 4.234376.121094 6.332032zm0 0" fill="#b2785b"/><path d="m438.863281 423.910156c12.894531 0 25.007813-4.953125 35.527344-13.636718-27.289063-16.171876-64.148437-36.226563-102.726563-51.960938 11.203126 38.578125 37.078126 65.597656 67.199219 65.597656zm0 0" fill="#c68d6d"/></svg>